<?xml version="1.0" standalone="no"?><!DOCTYPE svg PUBLIC "-//W3C//DTD SVG 1.1//EN" "http://www.w3.org/Graphics/SVG/1.1/DTD/svg11.dtd"><svg t="1625039315067" class="icon" viewBox="0 0 1024 1024" version="1.1" xmlns="http://www.w3.org/2000/svg" p-id="2414" xmlns:xlink="http://www.w3.org/1999/xlink" width="200" height="200"><defs><style type="text/css"></style></defs><path d="M570.002286 955.465143H215.625143A116.443429 116.443429 0 0 1 98.450286 839.68V153.6c0-20.553143 10.678857-47.104 32.109714-79.652571 34.377143-24.064 62.756571-36.132571 85.065143-36.132572h571.977143c32.694857 0 62.244571 13.165714 83.529143 34.596572 20.845714 20.845714 33.645714 49.517714 33.645714 81.188571v480.841143c0 7.460571-2.925714 14.628571-8.265143 19.821714l-297.910857 293.156572a27.794286 27.794286 0 0 1-19.529143 8.045714H574.171429a27.062857 27.062857 0 0 1-4.169143 0zM849.188571 153.6a60.854857 60.854857 0 0 0-61.513142-60.123429H215.625143a60.928 60.928 0 0 0-61.586286 60.123429v686.08c0 33.133714 27.428571 60.123429 61.513143 60.123429h328.484571V662.454857c0-30.793143 25.014857-55.808 55.808-55.808h249.344V153.6zM599.771429 662.454857v198.070857l198.217142-198.217143H599.771429s-0.146286 0-0.146286 0.146286zM265.216 257.097143c0-15.36 12.434286-27.794286 27.794286-27.794286h444.854857a27.794286 27.794286 0 1 1 0 55.588572H293.083429a27.794286 27.794286 0 0 1-27.794286-27.794286z m0 166.838857c0-15.36 12.434286-27.794286 27.794286-27.794286h194.56a27.794286 27.794286 0 1 1 0 55.588572h-194.56a27.794286 27.794286 0 0 1-27.794286-27.794286z" fill="#ACACAC" p-id="2415"></path></svg>